<svg xmlns="http://www.w3.org/2000/svg" version="1.1" xmlns:xlink="http://www.w3.org/1999/xlink" xmlns:svgjs="http://svgjs.dev/svgjs" width="1500" height="522" viewBox="0 0 1500 522"><g transform="matrix(1,0,0,1,-0.9090909090909918,0.27784909300896743)"><svg viewBox="0 0 396 138" data-background-color="#2c4555" preserveAspectRatio="xMidYMid meet" height="522" width="1500" xmlns="http://www.w3.org/2000/svg" xmlns:xlink="http://www.w3.org/1999/xlink"><g id="tight-bounds" transform="matrix(1,0,0,1,0.2400000000000091,-0.07345435792191779)"><svg viewBox="0 0 395.52 138.14690871584384" height="138.14690871584384" width="395.52"><g><svg viewBox="0 0 654.1427497885004 228.47845555765335" height="138.14690871584384" width="395.52"><g transform="matrix(1,0,0,1,258.62274978850036,61.209376324340425)"><svg viewBox="0 0 395.52 106.0597029089725" height="106.0597029089725" width="395.52"><g id="textblocktransform"><svg viewBox="0 0 395.52 106.0597029089725" height="106.0597029089725" width="395.52" id="textblock"><g><svg viewBox="0 0 395.52 63.844470066518845" height="63.844470066518845" width="395.52"><g transform="matrix(1,0,0,1,0,0)"><svg width="395.52" viewBox="1.6 -35.7 227.19 36.400000000000006" height="63.844470066518845" data-palette-color="#dedad7"><g class="wordmark-text-0" data-fill-palette-color="primary" id="text-0"><path d="M17.6 0L14 0 14-14.8 1.6-35 5.4-35 16.55-16.7 16.85-16.7 25.75-35 29.55-35 17.6-15.5 17.6 0ZM34.85-17.5L34.85-17.5Q34.85-21.35 36.22-24.68 37.6-28 40.07-30.48 42.55-32.95 45.87-34.33 49.2-35.7 53.05-35.7L53.05-35.7Q56.9-35.7 60.22-34.33 63.55-32.95 66.02-30.48 68.5-28 69.87-24.68 71.25-21.35 71.25-17.5L71.25-17.5Q71.25-13.65 69.87-10.33 68.5-7 66.02-4.53 63.55-2.05 60.22-0.68 56.9 0.7 53.05 0.7L53.05 0.7Q49.2 0.7 45.87-0.68 42.55-2.05 40.07-4.53 37.6-7 36.22-10.33 34.85-13.65 34.85-17.5ZM38.65-17.5L38.65-17.5Q38.65-12.4 40.45-8.58 42.25-4.75 45.5-2.63 48.75-0.5 53.05-0.5L53.05-0.5Q57.35-0.5 60.6-2.63 63.85-4.75 65.65-8.6 67.45-12.45 67.45-17.5L67.45-17.5Q67.45-22.55 65.65-26.38 63.85-30.2 60.6-32.35 57.35-34.5 53.05-34.5L53.05-34.5Q48.75-34.5 45.52-32.38 42.3-30.25 40.47-26.43 38.65-22.6 38.65-17.5ZM81.25-14L81.25-35 84.65-35 84.65-13.9Q84.65-7.85 87.62-4.48 90.59-1.1 96-1.1L96-1.1Q99.4-1.1 101.92-2.43 104.45-3.75 105.82-6.1 107.2-8.45 107.09-11.5L107.09-11.5 106.25-35 109.65-35 108.8-11.5Q108.59-5.5 105.22-2.4 101.84 0.7 95.59 0.7L95.59 0.7Q88.84 0.7 85.05-3.23 81.25-7.15 81.25-14L81.25-14ZM133.04 0L129.64 0 129.64-34Q128.89-34 126.54-33.7L126.54-33.7 116.74-32.45 116.74-35 145.94-35 145.94-32.45 136.14-33.7Q133.79-34 133.04-34L133.04-34 133.04 0ZM165.14 0L161.54 0 161.54-14.8 149.14-35 152.94-35 164.09-16.7 164.39-16.7 173.29-35 177.09-35 165.14-15.5 165.14 0ZM188.29 0L184.89 0 184.89-35 191.14-35Q197.19-35 200.54-32.43 203.89-29.85 203.89-25.25L203.89-25.25Q203.89-20.65 200.54-18.07 197.19-15.5 191.14-15.5L191.14-15.5 188.29-15.5 188.29 0ZM191.14-33.8L191.14-33.8 188.29-33.8 188.29-16.7 191.14-16.7Q200.29-16.7 200.29-25.25L200.29-25.25Q200.29-33.8 191.14-33.8ZM228.79 0L213.39 0 213.39-35 228.64-35 228.64-32.55 219.89-33.7Q217.59-34 216.79-34L216.79-34 216.79-18.75Q217.44-18.75 219.89-18.9L219.89-18.9 228.09-19.4 228.09-17.1 219.89-17.6Q217.44-17.75 216.79-17.75L216.79-17.75 216.79-1Q217.69-1 219.94-1.3L219.94-1.3 228.79-2.45 228.79 0Z" fill="#dedad7" data-fill-palette-color="primary"></path></g></svg></g></svg></g><g transform="matrix(1,0,0,1,0,78.91661718194234)"><svg viewBox="0 0 232.209792 27.143085727030147" height="27.143085727030147" width="232.209792"><g transform="matrix(1,0,0,1,0,0)"><svg width="232.209792" viewBox="0.2 -34.86 367.74999999989996 42.99" height="27.143085727030147" data-palette-color="#dedad7"><path d="M10.25-31.74L10.25 0 6.86 0 6.86-31.74 0.2-31.74 0.2-34.86 16.94-34.86 16.94-31.74 10.25-31.74ZM21.63 8.13L21.63 8.13Q20.85 8.13 19.76 8.06 18.67 7.98 17.97 7.91L17.97 7.91 17.97 5.2Q19.48 5.32 21.53 5.32L21.53 5.32Q23.7 5.32 24.47 4.8 25.24 4.27 25.51 2.95L25.51 2.95 26.22 0 22.92 0 18.53-23.75 21.75-23.75 23.39-12.43 25.27-2.71 26.76-2.71 28.76-12.43 30.49-23.75 33.74-23.75 28.61 2.71Q28.15 5.59 26.66 6.86 25.17 8.13 21.63 8.13ZM39.94-2.25L39.94 7.91 36.79 7.91 36.79-23.75 39.94-23.75 39.94-21.53 40.62-21.53Q41.45-22.83 42.61-23.45 43.77-24.07 45.8-24.07L45.8-24.07Q48.58-24.07 49.91-22.86 51.24-21.66 51.31-18.82L51.31-18.82Q51.39-17.58 51.41-15.81 51.44-14.04 51.44-12.07 51.44-10.11 51.41-8.25 51.39-6.4 51.31-4.96L51.31-4.96Q51.24-2.15 49.85-0.93 48.46 0.29 45.67 0.29L45.67 0.29Q43.84 0.29 42.67-0.31 41.5-0.9 40.62-2.25L40.62-2.25 39.94-2.25ZM44.79-2.37L44.79-2.37Q48.09-2.37 48.19-4.69L48.19-4.69Q48.38-8.47 48.35-12.16 48.31-15.84 48.19-19.09L48.19-19.09Q48.14-20.31 47.41-20.86 46.67-21.41 44.94-21.41L44.94-21.41Q41.21-21.41 39.94-19.19L39.94-19.19 39.94-4.59Q40.6-3.39 41.73-2.88 42.87-2.37 44.79-2.37ZM59.39-31.69L59.39-28.17 56.24-28.17 56.24-31.69 59.39-31.69ZM59.39-23.75L59.39 0 56.22 0 56.22-23.75 59.39-23.75ZM67.69-19.19L67.69 0 64.54 0 64.54-23.75 67.69-23.75 67.69-21.53 68.45-21.53Q69.2-22.75 70.44-23.41 71.67-24.07 73.55-24.07L73.55-24.07Q76.31-24.07 77.65-22.86 78.99-21.66 78.99-18.82L78.99-18.82 78.99 0 75.87 0 75.87-19.09Q75.87-20.31 75.1-20.86 74.33-21.41 72.62-21.41L72.62-21.41Q70.91-21.41 69.62-20.83 68.32-20.24 67.69-19.19L67.69-19.19ZM90.12 6.86L90.12 6.86Q86.8 6.86 84.78 6.03 82.75 5.2 82.63 3.42L82.63 3.42Q82.63 3.22 82.6 2.95 82.58 2.69 82.58 2.39L82.58 2.39Q82.68 1.32 83.67 0.66 84.66 0 85.95-0.15L85.95-0.15 85.95-0.76Q83.53-1.27 83.46-2.86L83.46-2.86Q83.43-3.27 83.46-3.69L83.46-3.69Q83.48-4.52 84.23-5.08 84.97-5.64 85.9-5.74L85.9-5.74 85.9-6.35Q83.36-7.45 83.19-11.21L83.19-11.21Q83.12-12.67 83.08-13.76 83.04-14.84 83.07-15.95 83.09-17.07 83.19-18.58L83.19-18.58Q83.31-21.48 84.89-22.78 86.46-24.07 89.93-24.07L89.93-24.07Q92.47-24.07 93.96-23.49 95.45-22.9 96.11-21.66L96.11-21.66 96.79-21.66Q96.96-23.75 99.94-23.75L99.94-23.75 99.94-21.02 99.08-21.02Q96.91-21.02 96.81-18.51L96.81-18.51 96.76-16.58Q96.81-15.16 96.81-14.01 96.81-12.87 96.67-11.21L96.67-11.21Q96.55-8.25 95.01-6.98 93.47-5.71 89.93-5.71L89.93-5.71Q87.88-5.74 86.95-5.4 86.02-5.05 86.02-4.27L86.02-4.27 86.02-4.08Q86.07-3.37 87.05-3.08 88.02-2.78 90.3-2.73L90.3-2.73Q93.93-2.64 95.87-1.7 97.81-0.76 97.99 1.42L97.99 1.42 97.99 2.69Q97.81 4.98 95.64 5.92 93.47 6.86 90.12 6.86ZM89.93-8.47L89.93-8.47Q91.88-8.47 92.7-9.01 93.52-9.55 93.59-10.77L93.59-10.77Q93.71-12.5 93.71-14.81 93.71-17.11 93.59-19.02L93.59-19.02Q93.52-20.31 92.69-20.83 91.86-21.34 89.93-21.34L89.93-21.34Q88-21.34 87.17-20.81 86.34-20.29 86.24-18.99L86.24-18.99Q85.97-14.36 86.24-10.82L86.24-10.82Q86.34-9.62 87.19-9.05 88.05-8.47 89.93-8.47ZM90.2 4.27L90.2 4.27Q92.3 4.27 93.63 3.88 94.96 3.49 95.06 2.49L95.06 2.49Q95.08 2.22 95.07 1.99 95.06 1.76 95.06 1.51L95.06 1.51Q94.96 0.46 93.65 0.16 92.35-0.15 90.2-0.2L90.2-0.2Q88.12-0.24 86.89 0.12 85.66 0.49 85.53 1.54L85.53 1.54 85.53 2.49Q85.66 3.56 86.9 3.92 88.15 4.27 90.2 4.27ZM118.61 0.29L118.61 0.29Q114.68 0.29 113.15-0.98 111.63-2.25 111.51-5.13L111.51-5.13Q111.46-5.88 111.44-6.82 111.43-7.76 111.53-8.47L111.53-8.47 114.39-8.47Q114.34-7.35 114.35-6.41 114.36-5.47 114.39-4.81L114.39-4.81Q114.41-3.47 115.33-2.95 116.24-2.44 118.61-2.44L118.61-2.44Q121.03-2.44 122.02-2.95 123-3.47 123.08-4.81L123.08-4.81Q123.15-5.64 123.18-6.04 123.2-6.45 123.18-7.2L123.18-7.2Q123.1-8.45 122.52-9.13 121.93-9.81 119.98-10.11L119.98-10.11 117.12-10.77Q114.92-11.23 113.73-11.94 112.53-12.65 112.04-13.78 111.55-14.92 111.46-16.65L111.46-16.65Q111.38-17.53 111.58-18.58L111.58-18.58Q111.63-21.53 113.18-22.8 114.73-24.07 118.83-24.07L118.83-24.07Q122.76-24.07 124.29-22.83 125.81-21.58 125.96-18.73L125.96-18.73Q125.96-17.99 125.95-17.05 125.93-16.11 125.86-15.41L125.86-15.41 122.91-15.41Q123.03-16.26 123.02-17.36 123-18.46 122.96-19.07L122.96-19.07Q122.93-20.36 122.07-20.85 121.2-21.34 118.83-21.34L118.83-21.34Q116.44-21.34 115.57-20.85 114.7-20.36 114.61-19.07L114.61-19.07Q114.58-18.46 114.53-18.05 114.48-17.65 114.51-16.94L114.51-16.94Q114.58-16.09 114.77-15.43 114.95-14.77 115.6-14.34 116.24-13.92 117.71-13.7L117.71-13.7 120.44-13.13Q123.42-12.52 124.79-11.24 126.15-9.96 126.15-7.37L126.15-7.37Q126.15-6.84 126.14-6.23 126.13-5.62 126.08-5.05L126.08-5.05Q125.91-2.2 124.29-0.95 122.66 0.29 118.61 0.29ZM133.16-2.25L133.16 7.91 130.01 7.91 130.01-23.75 133.16-23.75 133.16-21.53 133.84-21.53Q134.67-22.83 135.83-23.45 136.99-24.07 139.02-24.07L139.02-24.07Q141.8-24.07 143.13-22.86 144.46-21.66 144.54-18.82L144.54-18.82Q144.61-17.58 144.63-15.81 144.66-14.04 144.66-12.07 144.66-10.11 144.63-8.25 144.61-6.4 144.54-4.96L144.54-4.96Q144.46-2.15 143.07-0.93 141.68 0.29 138.9 0.29L138.9 0.29Q137.06 0.29 135.89-0.31 134.72-0.9 133.84-2.25L133.84-2.25 133.16-2.25ZM138.02-2.37L138.02-2.37Q141.31-2.37 141.41-4.69L141.41-4.69Q141.61-8.47 141.57-12.16 141.53-15.84 141.41-19.09L141.41-19.09Q141.36-20.31 140.63-20.86 139.9-21.41 138.16-21.41L138.16-21.41Q134.43-21.41 133.16-19.19L133.16-19.19 133.16-4.59Q133.82-3.39 134.95-2.88 136.09-2.37 138.02-2.37ZM156.2 0.29L156.2 0.29Q152.17 0.29 150.45-0.98 148.73-2.25 148.61-5.13L148.61-5.13Q148.51-6.93 148.48-9.38 148.44-11.82 148.48-14.28 148.51-16.75 148.61-18.58L148.61-18.58Q148.73-21.53 150.5-22.8 152.27-24.07 156.2-24.07L156.2-24.07Q159.91-24.07 161.57-22.83 163.23-21.58 163.41-18.73L163.41-18.73Q163.45-17.87 163.5-15.75 163.55-13.62 163.36-11.23L163.36-11.23 151.66-11.23Q151.66-9.69 151.69-8.11 151.71-6.52 151.78-4.81L151.78-4.81Q151.81-3.47 152.81-2.95 153.81-2.44 156.11-2.44L156.11-2.44Q158.38-2.44 159.3-2.95 160.23-3.47 160.33-4.81L160.33-4.81Q160.4-6.15 160.33-8.47L160.33-8.47 163.36-8.47Q163.48-7.76 163.47-6.82 163.45-5.88 163.41-5.13L163.41-5.13Q163.23-2.25 161.66-0.98 160.08 0.29 156.2 0.29ZM151.66-13.82L151.66-13.82 160.38-13.82Q160.43-15.48 160.43-16.99 160.43-18.51 160.33-19.07L160.33-19.07Q160.23-20.29 159.28-20.81 158.33-21.34 156.2-21.34L156.2-21.34Q153.83-21.34 152.82-20.81 151.81-20.29 151.78-19.07L151.78-19.07Q151.71-17.65 151.67-16.36 151.64-15.06 151.66-13.82ZM174.85 0.29L174.85 0.29Q170.82 0.29 169.1-0.98 167.38-2.25 167.26-5.13L167.26-5.13Q167.16-6.93 167.13-9.38 167.09-11.82 167.13-14.28 167.16-16.75 167.26-18.58L167.26-18.58Q167.38-21.53 169.15-22.8 170.92-24.07 174.85-24.07L174.85-24.07Q178.56-24.07 180.22-22.83 181.88-21.58 182.06-18.73L182.06-18.73Q182.1-17.87 182.15-15.75 182.2-13.62 182.01-11.23L182.01-11.23 170.31-11.23Q170.31-9.69 170.34-8.11 170.36-6.52 170.43-4.81L170.43-4.81Q170.46-3.47 171.46-2.95 172.46-2.44 174.76-2.44L174.76-2.44Q177.03-2.44 177.95-2.95 178.88-3.47 178.98-4.81L178.98-4.81Q179.05-6.15 178.98-8.47L178.98-8.47 182.01-8.47Q182.13-7.76 182.12-6.82 182.1-5.88 182.06-5.13L182.06-5.13Q181.88-2.25 180.31-0.98 178.73 0.29 174.85 0.29ZM170.31-13.82L170.31-13.82 179.03-13.82Q179.08-15.48 179.08-16.99 179.08-18.51 178.98-19.07L178.98-19.07Q178.88-20.29 177.93-20.81 176.98-21.34 174.85-21.34L174.85-21.34Q172.48-21.34 171.47-20.81 170.46-20.29 170.43-19.07L170.43-19.07Q170.36-17.65 170.32-16.36 170.29-15.06 170.31-13.82ZM191.4 0.29L191.4 0.29Q188.64 0.29 187.3-0.93 185.96-2.15 185.89-4.96L185.89-4.96Q185.79-6.96 185.75-9.35 185.71-11.74 185.75-14.21 185.79-16.67 185.89-18.82L185.89-18.82Q185.96-21.66 187.34-22.86 188.72-24.07 191.45-24.07L191.45-24.07Q193.48-24.07 194.64-23.45 195.8-22.83 196.65-21.53L196.65-21.53 197.29-21.53 197.29-31.69 200.41-31.69 200.41 0 197.29 0 197.29-2.25 196.58-2.25Q195.75-1.03 194.59-0.37 193.43 0.29 191.4 0.29ZM192.31-2.37L192.31-2.37Q195.99-2.37 197.29-4.59L197.29-4.59 197.29-19.19Q196.02-21.41 192.33-21.41L192.33-21.41Q190.62-21.41 189.85-20.86 189.08-20.31 189.06-19.09L189.06-19.09Q188.91-15.43 188.94-11.66 188.96-7.89 189.06-4.69L189.06-4.69Q189.11-3.49 189.85-2.93 190.6-2.37 192.31-2.37ZM222.28 0.29L222.28 0.29Q218.47 0.29 217.14-0.98 215.81-2.25 215.81-5.13L215.81-5.13 215.81-21.02 213.47-21.02 213.47-23.75 215.89-23.75 215.89-30.49 218.99-30.49 218.99-23.75 224.36-23.75 224.36-21.02 218.96-21.02 218.96-4.79Q218.96-3.44 219.52-2.93 220.08-2.42 222.36-2.42L222.36-2.42Q223.28-2.42 223.78-2.45 224.28-2.49 224.94-2.51L224.94-2.51 224.94 0.1Q224.36 0.2 223.67 0.24 222.99 0.29 222.28 0.29ZM234.83 0.29L234.83 0.29Q230.8 0.29 229.08-0.98 227.36-2.25 227.24-5.13L227.24-5.13Q227.14-6.93 227.1-9.38 227.06-11.82 227.1-14.28 227.14-16.75 227.24-18.58L227.24-18.58Q227.36-21.53 229.13-22.8 230.9-24.07 234.83-24.07L234.83-24.07Q238.54-24.07 240.2-22.83 241.86-21.58 242.03-18.73L242.03-18.73Q242.08-17.87 242.13-15.75 242.18-13.62 241.98-11.23L241.98-11.23 230.29-11.23Q230.29-9.69 230.31-8.11 230.34-6.52 230.41-4.81L230.41-4.81Q230.43-3.47 231.43-2.95 232.44-2.44 234.73-2.44L234.73-2.44Q237-2.44 237.93-2.95 238.86-3.47 238.95-4.81L238.95-4.81Q239.03-6.15 238.95-8.47L238.95-8.47 241.98-8.47Q242.1-7.76 242.09-6.82 242.08-5.88 242.03-5.13L242.03-5.13Q241.86-2.25 240.28-0.98 238.71 0.29 234.83 0.29ZM230.29-13.82L230.29-13.82 239-13.82Q239.05-15.48 239.05-16.99 239.05-18.51 238.95-19.07L238.95-19.07Q238.86-20.29 237.9-20.81 236.95-21.34 234.83-21.34L234.83-21.34Q232.46-21.34 231.45-20.81 230.43-20.29 230.41-19.07L230.41-19.07Q230.34-17.65 230.3-16.36 230.26-15.06 230.29-13.82ZM252.67 0.29L252.67 0.29Q248.74 0.29 247.22-0.98 245.69-2.25 245.57-5.13L245.57-5.13Q245.52-5.88 245.51-6.82 245.49-7.76 245.59-8.47L245.59-8.47 248.45-8.47Q248.4-7.35 248.41-6.41 248.42-5.47 248.45-4.81L248.45-4.81Q248.47-3.47 249.39-2.95 250.3-2.44 252.67-2.44L252.67-2.44Q255.09-2.44 256.08-2.95 257.07-3.47 257.14-4.81L257.14-4.81Q257.21-5.64 257.24-6.04 257.26-6.45 257.24-7.2L257.24-7.2Q257.16-8.45 256.58-9.13 255.99-9.81 254.04-10.11L254.04-10.11 251.18-10.77Q248.99-11.23 247.79-11.94 246.59-12.65 246.11-13.78 245.62-14.92 245.52-16.65L245.52-16.65Q245.45-17.53 245.64-18.58L245.64-18.58Q245.69-21.53 247.24-22.8 248.79-24.07 252.89-24.07L252.89-24.07Q256.82-24.07 258.35-22.83 259.87-21.58 260.02-18.73L260.02-18.73Q260.02-17.99 260.01-17.05 260-16.11 259.92-15.41L259.92-15.41 256.97-15.41Q257.09-16.26 257.08-17.36 257.07-18.46 257.02-19.07L257.02-19.07Q256.99-20.36 256.13-20.85 255.26-21.34 252.89-21.34L252.89-21.34Q250.5-21.34 249.63-20.85 248.77-20.36 248.67-19.07L248.67-19.07Q248.64-18.46 248.6-18.05 248.55-17.65 248.57-16.94L248.57-16.94Q248.64-16.09 248.83-15.43 249.01-14.77 249.66-14.34 250.3-13.92 251.77-13.7L251.77-13.7 254.5-13.13Q257.48-12.52 258.85-11.24 260.22-9.96 260.22-7.37L260.22-7.37Q260.22-6.84 260.2-6.23 260.19-5.62 260.14-5.05L260.14-5.05Q259.97-2.2 258.35-0.95 256.73 0.29 252.67 0.29ZM271.57 0.29L271.57 0.29Q267.76 0.29 266.43-0.98 265.1-2.25 265.1-5.13L265.1-5.13 265.1-21.02 262.75-21.02 262.75-23.75 265.17-23.75 265.17-30.49 268.27-30.49 268.27-23.75 273.64-23.75 273.64-21.02 268.25-21.02 268.25-4.79Q268.25-3.44 268.81-2.93 269.37-2.42 271.64-2.42L271.64-2.42Q272.57-2.42 273.07-2.45 273.57-2.49 274.23-2.51L274.23-2.51 274.23 0.1Q273.64 0.2 272.96 0.24 272.27 0.29 271.57 0.29ZM293.24 6.86L293.24 6.86Q289.92 6.86 287.89 6.03 285.87 5.2 285.75 3.42L285.75 3.42Q285.75 3.22 285.72 2.95 285.7 2.69 285.7 2.39L285.7 2.39Q285.79 1.32 286.78 0.66 287.77 0 289.07-0.15L289.07-0.15 289.07-0.76Q286.65-1.27 286.58-2.86L286.58-2.86Q286.55-3.27 286.58-3.69L286.58-3.69Q286.6-4.52 287.35-5.08 288.09-5.64 289.02-5.74L289.02-5.74 289.02-6.35Q286.48-7.45 286.31-11.21L286.31-11.21Q286.23-12.67 286.2-13.76 286.16-14.84 286.19-15.95 286.21-17.07 286.31-18.58L286.31-18.58Q286.43-21.48 288-22.78 289.58-24.07 293.05-24.07L293.05-24.07Q295.58-24.07 297.07-23.49 298.56-22.9 299.22-21.66L299.22-21.66 299.91-21.66Q300.08-23.75 303.06-23.75L303.06-23.75 303.06-21.02 302.2-21.02Q300.03-21.02 299.93-18.51L299.93-18.51 299.88-16.58Q299.93-15.16 299.93-14.01 299.93-12.87 299.78-11.21L299.78-11.21Q299.66-8.25 298.12-6.98 296.59-5.71 293.05-5.71L293.05-5.71Q291-5.74 290.07-5.4 289.14-5.05 289.14-4.27L289.14-4.27 289.14-4.08Q289.19-3.37 290.16-3.08 291.14-2.78 293.41-2.73L293.41-2.73Q297.05-2.64 298.99-1.7 300.93-0.76 301.1 1.42L301.1 1.42 301.1 2.69Q300.93 4.98 298.76 5.92 296.59 6.86 293.24 6.86ZM293.05-8.47L293.05-8.47Q295-8.47 295.82-9.01 296.63-9.55 296.71-10.77L296.71-10.77Q296.83-12.5 296.83-14.81 296.83-17.11 296.71-19.02L296.71-19.02Q296.63-20.31 295.8-20.83 294.97-21.34 293.05-21.34L293.05-21.34Q291.12-21.34 290.29-20.81 289.46-20.29 289.36-18.99L289.36-18.99Q289.09-14.36 289.36-10.82L289.36-10.82Q289.46-9.62 290.31-9.05 291.17-8.47 293.05-8.47ZM293.31 4.27L293.31 4.27Q295.41 4.27 296.74 3.88 298.08 3.49 298.17 2.49L298.17 2.49Q298.2 2.22 298.18 1.99 298.17 1.76 298.17 1.51L298.17 1.51Q298.08 0.46 296.77 0.16 295.46-0.15 293.31-0.2L293.31-0.2Q291.24-0.24 290.01 0.12 288.77 0.49 288.65 1.54L288.65 1.54 288.65 2.49Q288.77 3.56 290.02 3.92 291.26 4.27 293.31 4.27ZM310.91 0.27L310.91 0.27Q307.94 0.27 306.51-0.9 305.08-2.08 304.84-4.57L304.84-4.57Q304.81-5.05 304.77-5.54 304.74-6.03 304.79-6.49L304.79-6.49Q304.96-8.67 306.15-10.14 307.35-11.62 310.69-12.84L310.69-12.84Q312.06-13.33 313.58-13.72 315.09-14.11 316.58-14.48L316.58-14.48 316.58-18.99Q316.58-20.19 315.68-20.76 314.77-21.34 312.53-21.34L312.53-21.34Q310.57-21.34 309.56-20.85 308.55-20.36 308.45-19.07L308.45-19.07Q308.4-18.46 308.4-17.32 308.4-16.19 308.45-15.41L308.45-15.41 305.4-15.41Q305.35-16.02 305.3-16.99 305.25-17.97 305.32-18.73L305.32-18.73Q305.45-21.56 307.17-22.81 308.89-24.07 312.65-24.07L312.65-24.07Q316.58-24.07 318.1-22.71 319.63-21.34 319.65-18.21L319.65-18.21 319.65 0 316.58 0 316.58-2.25 315.89-2.25Q315.28-1.03 314.15-0.38 313.01 0.27 310.91 0.27ZM311.7-2.37L311.7-2.37Q315.21-2.37 316.55-4.47L316.55-4.47 316.55-11.87Q315.38-11.62 314.15-11.29 312.92-10.96 311.26-10.4L311.26-10.4Q309.28-9.67 308.62-8.72 307.96-7.76 307.86-6.49L307.86-6.49Q307.89-6.13 307.9-5.7 307.91-5.27 307.96-4.81L307.96-4.81Q308.13-3.64 309.13-3 310.13-2.37 311.7-2.37ZM327.29-19.19L327.29 0 324.14 0 324.14-23.75 327.29-23.75 327.29-21.53 327.9-21.53Q328.73-22.83 329.85-23.45 330.96-24.07 332.91-24.07L332.91-24.07Q336.84-24.07 337.74-21.34L337.74-21.34 338.4-21.34Q339.21-22.61 340.45-23.34 341.7-24.07 343.65-24.07L343.65-24.07Q346.26-24.07 347.56-22.86 348.85-21.66 348.85-18.82L348.85-18.82 348.85 0 345.73 0 345.73-19.09Q345.68-20.31 344.97-20.86 344.26-21.41 342.63-21.41L342.63-21.41Q339.38-21.41 338.11-19.12L338.11-19.12 338.11 0 334.98 0 334.98-19.09Q334.94-20.31 334.23-20.86 333.52-21.41 331.93-21.41L331.93-21.41Q328.47-21.41 327.29-19.19L327.29-19.19ZM360.64 0.29L360.64 0.29Q356.61 0.29 354.89-0.98 353.17-2.25 353.05-5.13L353.05-5.13Q352.95-6.93 352.91-9.38 352.88-11.82 352.91-14.28 352.95-16.75 353.05-18.58L353.05-18.58Q353.17-21.53 354.94-22.8 356.71-24.07 360.64-24.07L360.64-24.07Q364.35-24.07 366.01-22.83 367.67-21.58 367.84-18.73L367.84-18.73Q367.89-17.87 367.94-15.75 367.99-13.62 367.79-11.23L367.79-11.23 356.1-11.23Q356.1-9.69 356.12-8.11 356.15-6.52 356.22-4.81L356.22-4.81Q356.25-3.47 357.25-2.95 358.25-2.44 360.54-2.44L360.54-2.44Q362.81-2.44 363.74-2.95 364.67-3.47 364.77-4.81L364.77-4.81Q364.84-6.15 364.77-8.47L364.77-8.47 367.79-8.47Q367.92-7.76 367.9-6.82 367.89-5.88 367.84-5.13L367.84-5.13Q367.67-2.25 366.1-0.98 364.52 0.29 360.64 0.29ZM356.1-13.82L356.1-13.82 364.82-13.82Q364.86-15.48 364.86-16.99 364.86-18.51 364.77-19.07L364.77-19.07Q364.67-20.29 363.72-20.81 362.76-21.34 360.64-21.34L360.64-21.34Q358.27-21.34 357.26-20.81 356.25-20.29 356.22-19.07L356.22-19.07Q356.15-17.65 356.11-16.36 356.08-15.06 356.1-13.82Z" opacity="1" transform="matrix(1,0,0,1,0,0)" fill="#dedad7" class="slogan-text-1" data-fill-palette-color="secondary" id="text-1"></path></svg></g></svg></g></svg></g></svg></g><g><svg viewBox="0 0 228.47845555765335 228.47845555765335" height="228.47845555765335" width="228.47845555765335"><g><svg></svg></g><g id="icon-0"><svg viewBox="0 0 228.47845555765335 228.47845555765335" height="228.47845555765335" width="228.47845555765335"><g><path d="M0 114.239c0-63.093 51.147-114.239 114.239-114.239 63.093 0 114.239 51.147 114.239 114.239 0 63.093-51.147 114.239-114.239 114.239-63.093 0-114.239-51.147-114.239-114.239zM114.239 222.721c59.913 0 108.482-48.569 108.482-108.482 0-59.913-48.569-108.482-108.482-108.481-59.913 0-108.482 48.569-108.481 108.481 0 59.913 48.569 108.482 108.481 108.482z" data-fill-palette-color="accent" fill="#b4bfc5" stroke="transparent"></path></g><g transform="matrix(1,0,0,1,47.460466992377846,46.1730586075967)"><svg viewBox="0 0 133.55752157289766 136.13233834245995" height="136.13233834245995" width="133.55752157289766"><g><svg xmlns="http://www.w3.org/2000/svg" xmlns:xlink="http://www.w3.org/1999/xlink" version="1.1" x="0" y="0" viewBox="19.915 19.17 60.169999999999995 61.33" enable-background="new 0 0 100 100" xml:space="preserve" height="136.13233834245995" width="133.55752157289766" class="icon-dxe-0" data-fill-palette-color="accent" id="dxe-0"><g fill="#b4bfc5" data-fill-palette-color="accent"><path d="M75.085 19.17H24.915C22.155 19.17 19.915 21.41 19.915 24.17V75.5C19.915 78.25 22.155 80.5 24.915 80.5H75.085C77.845 80.5 80.085 78.25 80.085 75.5V24.17C80.085 21.41 77.845 19.17 75.085 19.17M74.085 74.5H25.915V25.17H74.085z" fill="#b4bfc5" data-fill-palette-color="accent"></path></g><path d="M69.585 36.66C69.585 38.32 68.245 39.66 66.585 39.66H33.415C31.765 39.66 30.415 38.32 30.415 36.66 30.415 35.01 31.765 33.66 33.415 33.66H66.585C68.245 33.66 69.585 35.01 69.585 36.66" fill="#b4bfc5" data-fill-palette-color="accent"></path><path d="M44.755 49.83C44.755 51.49 43.405 52.83 41.755 52.83H33.415C31.765 52.83 30.415 51.49 30.415 49.83S31.765 46.83 33.415 46.83H41.755C43.405 46.83 44.755 48.17 44.755 49.83" fill="#b4bfc5" data-fill-palette-color="accent"></path><path d="M44.755 63.16C44.755 64.82 43.405 66.16 41.755 66.16H33.415C31.765 66.16 30.415 64.82 30.415 63.16 30.415 61.51 31.765 60.16 33.415 60.16H41.755C43.405 60.16 44.755 61.51 44.755 63.16" fill="#b4bfc5" data-fill-palette-color="accent"></path><path d="M68.766 52.68L58.355 63.1C57.765 63.68 56.995 63.981 56.234 63.981 55.464 63.981 54.695 63.68 54.105 63.1L50.105 59.1A3.01 3.01 0 0 1 50.105 54.85 3.01 3.01 0 0 1 54.355 54.85L56.234 56.731 64.525 48.441A2.998 2.998 0 0 1 68.766 52.68" fill="#b4bfc5" data-fill-palette-color="accent"></path></svg></g></svg></g></svg></g></svg></g></svg></g><defs></defs></svg><rect width="395.52" height="138.14690871584384" fill="none" stroke="none" visibility="hidden"></rect></g></svg></g></svg>